<svg width="22" height="22" viewBox="0 0 22 22" fill="none" xmlns="http://www.w3.org/2000/svg">
<path d="M10.25 10.2405V10.9905C10.6642 10.9905 11 10.6547 11 10.2405H10.25ZM10.25 11.7405H11C11 11.3263 10.6642 10.9905 10.25 10.9905V11.7405ZM11.75 11.7405V10.9905C11.3358 10.9905 11 11.3263 11 11.7405H11.75ZM11.75 10.2405H11C11 10.6547 11.3358 10.9905 11.75 10.9905V10.2405ZM11 7.3273H12.5C12.5 6.49887 11.8284 5.8273 11 5.8273V7.3273ZM11 7.3273H11V5.8273C10.1716 5.8273 9.49998 6.49887 9.49998 7.3273H11ZM11 10.2405V7.3273H9.49998V10.2405H11ZM7.33331 10.9905H10.25V9.49048H7.33331V10.9905ZM7.33331 10.9905V9.49048C6.50489 9.49048 5.83331 10.1621 5.83331 10.9905H7.33331ZM7.33331 10.9905H5.83331C5.83331 11.8189 6.50489 12.4905 7.33331 12.4905V10.9905ZM10.25 10.9905H7.33331V12.4905H10.25V10.9905ZM11 14.6537V11.7405H9.49998V14.6537H11ZM11 14.6537H11H9.49998C9.49998 15.4821 10.1716 16.1537 11 16.1537V14.6537ZM11 14.6537V16.1537C11.8284 16.1537 12.5 15.4821 12.5 14.6537H11ZM11 11.7405V14.6537H12.5V11.7405H11ZM14.6666 10.9905H11.75V12.4905H14.6666V10.9905ZM14.6666 10.9905V12.4905C15.4951 12.4905 16.1666 11.8189 16.1666 10.9905H14.6666ZM14.6666 10.9905H16.1666C16.1666 10.1621 15.4951 9.49048 14.6666 9.49048V10.9905ZM11.75 10.9905H14.6666V9.49048H11.75V10.9905ZM11 7.3273V10.2405H12.5V7.3273H11Z" fill="white"/>
<path fill-rule="evenodd" clip-rule="evenodd" d="M15.6857 1H6.31429C3.04762 1 1 3.31208 1 6.58516V15.4148C1 18.6879 3.0381 21 6.31429 21H15.6857C18.9619 21 21 18.6879 21 15.4148V6.58516C21 3.31208 18.9619 1 15.6857 1Z" stroke="white" stroke-width="1.5" stroke-linecap="round" stroke-linejoin="round"/>
</svg>
